<svg width="14" height="9" viewBox="0 0 14 9" fill="none" xmlns="http://www.w3.org/2000/svg">
<path d="M8.5316 1.87004L8.53158 1.87002C8.41237 1.75081 8.3454 1.58913 8.3454 1.42054C8.3454 1.25195 8.41237 1.09027 8.53158 0.971065C8.65079 0.851856 8.81247 0.784886 8.98105 0.784886C9.14964 0.784886 9.31132 0.851856 9.43053 0.971065L12.7908 4.33132L8.5316 1.87004ZM8.5316 1.87004L10.8081 4.14586L1.42006 4.14586C1.25161 4.14586 1.09006 4.21277 0.970955 4.33188C0.851846 4.45099 0.784932 4.61254 0.784932 4.78098C0.784932 4.94943 0.851846 5.11097 0.970955 5.23008C1.09006 5.34919 1.25161 5.41611 1.42006 5.41611H10.8081L8.5316 7.69193L8.53158 7.69195M8.5316 1.87004L8.53158 7.69195M8.53158 7.69195C8.41237 7.81116 8.3454 7.97284 8.3454 8.14143C8.3454 8.31001 8.41237 8.47169 8.53158 8.5909C8.65079 8.71011 8.81247 8.77708 8.98105 8.77708C9.14964 8.77708 9.31132 8.71011 9.43053 8.5909L12.7908 5.23065L8.53158 7.69195ZM12.9289 4.53756C12.8969 4.46048 12.85 4.39047 12.791 4.33151V5.23046C12.85 5.1715 12.8969 5.10148 12.9289 5.02441C12.9609 4.94724 12.9774 4.86452 12.9774 4.78098C12.9774 4.69744 12.9609 4.61472 12.9289 4.53756Z" fill="white" stroke="white" stroke-width="0.430137"/>
</svg>
