<svg width="30" height="30" viewBox="0 0 30 30" fill="none" xmlns="http://www.w3.org/2000/svg">
<path d="M30 15.1174C30 6.83087 23.2809 0.117432 15 0.117432C6.71344 0.117432 0 6.83087 0 15.1174C0 22.6024 5.48344 28.8087 12.6562 29.9327V19.4543H8.84719V15.1184H12.6562V11.8118C12.6562 8.05337 14.8922 5.97774 18.3197 5.97774C19.9613 5.97774 21.6797 6.27024 21.6797 6.27024V9.96118H19.785C17.925 9.96118 17.3438 11.119 17.3438 12.3049V15.1174H21.5034L20.835 19.4534H17.3438V29.9318C24.5109 28.8077 30 22.6015 30 15.1165V15.1174Z" fill="#312F2F"/>
</svg>
