<svg width="36" height="36" viewBox="0 0 36 36" fill="none" xmlns="http://www.w3.org/2000/svg">
<circle cx="18" cy="18" r="18" fill="#3A8BEA"/>
<path d="M18.281 11.4285C14.812 11.4285 12.0002 14.1311 12.0002 17.4644C12.0002 19.4431 14.2132 23.1996 16.0118 25.9261C17.2165 27.7521 19.3455 27.7521 20.5501 25.9261C22.3488 23.1992 24.5617 19.4431 24.5617 17.4644C24.5617 14.1307 21.7499 11.4285 18.281 11.4285ZM18.281 20.3028C16.5561 20.3028 15.1575 18.9588 15.1575 17.3011C15.1575 15.6435 16.5561 14.2994 18.281 14.2994C20.0059 14.2994 21.4044 15.6435 21.4044 17.3011C21.4044 18.9588 20.0059 20.3028 18.281 20.3028Z" fill="white"/>
</svg>
