<svg width="36" height="36" viewBox="0 0 36 36" fill="none" xmlns="http://www.w3.org/2000/svg">
<circle cx="18" cy="18" r="18" fill="#3A8BEA"/>
<g clip-path="url(#clip0_2_653)">
<path d="M24.0448 20.2522C23.1632 20.2522 22.2976 20.1144 21.4773 19.8433C21.0753 19.7062 20.5812 19.8319 20.3358 20.0839L18.7167 21.3062C16.839 20.3038 15.6823 19.1476 14.6937 17.2839L15.88 15.707C16.1882 15.3992 16.2987 14.9496 16.1663 14.5277C15.894 13.7031 15.7557 12.8378 15.7557 11.9558C15.7558 11.3187 15.2374 10.8003 14.6003 10.8003H11.9558C11.3187 10.8003 10.8003 11.3187 10.8003 11.9558C10.8003 19.2589 16.7417 25.2003 24.0448 25.2003C24.682 25.2003 25.2003 24.6819 25.2003 24.0448V21.4077C25.2003 20.7706 24.6819 20.2522 24.0448 20.2522Z" fill="white"/>
</g>
<defs>
<clipPath id="clip0_2_653">
<rect width="14.4" height="14.4" fill="white" transform="translate(10.8003 10.8003)"/>
</clipPath>
</defs>
</svg>
