<svg width="16" height="12" viewBox="0 0 16 12" fill="none" xmlns="http://www.w3.org/2000/svg">
<path d="M14.459 5.18708V2.9171C14.459 1.5698 13.4642 0.467468 12.2483 0.467468H9.30081C8.73341 0.467468 8.2176 0.712431 7.82705 1.10437C7.43651 0.712431 6.92069 0.467468 6.35329 0.467468H3.40577C2.18992 0.467468 1.19513 1.5698 1.19513 2.9171V5.18708C0.745635 5.63618 0.458252 6.28125 0.458252 6.99981V11.0825C0.458252 11.5316 0.789848 11.8991 1.19513 11.8991C1.60042 11.8991 1.93201 11.5316 1.93201 11.0825V10.266H13.7221V11.0825C13.7221 11.5316 14.0537 11.8991 14.459 11.8991C14.8643 11.8991 15.1959 11.5316 15.1959 11.0825V6.99981C15.1959 6.28125 14.9085 5.63618 14.459 5.18708ZM9.30081 2.10055H12.2483C12.6536 2.10055 12.9852 2.468 12.9852 2.9171V4.55018H8.56393V2.9171C8.56393 2.468 8.89553 2.10055 9.30081 2.10055ZM2.66889 2.9171C2.66889 2.468 3.00049 2.10055 3.40577 2.10055H6.35329C6.75858 2.10055 7.09017 2.468 7.09017 2.9171V4.55018H2.66889V2.9171ZM1.93201 8.63289V6.99981C1.93201 6.55071 2.26361 6.18327 2.66889 6.18327H12.9852C13.3905 6.18327 13.7221 6.55071 13.7221 6.99981V8.63289H1.93201Z" fill="#989898"/>
</svg>
