<svg width="14" height="17" viewBox="0 0 14 17" fill="none" xmlns="http://www.w3.org/2000/svg">
<path d="M7.0226 9.28128C8.2699 9.28128 9.28103 8.27014 9.28103 7.02284C9.28103 5.77554 8.2699 4.7644 7.0226 4.7644C5.7753 4.7644 4.76416 5.77554 4.76416 7.02284C4.76416 8.27014 5.7753 9.28128 7.0226 9.28128Z" stroke="#989898" stroke-width="0.836458" stroke-linecap="round" stroke-linejoin="round"/>
<path d="M7.0225 1C5.42523 1 3.89339 1.63451 2.76395 2.76395C1.63451 3.89339 1 5.42523 1 7.0225C1 8.44682 1.30263 9.3788 2.12922 10.4102L7.0225 16.0563L11.9158 10.4102C12.7424 9.3788 13.045 8.44682 13.045 7.0225C13.045 5.42523 12.4105 3.89339 11.2811 2.76395C10.1516 1.63451 8.61977 1 7.0225 1V1Z" stroke="#989898" stroke-width="0.836458" stroke-linecap="round" stroke-linejoin="round"/>
</svg>
