<svg width="72" height="62" viewBox="0 0 72 62" fill="none" xmlns="http://www.w3.org/2000/svg">
<path d="M63 20.6667C64.5913 20.6667 66.1174 21.211 67.2426 22.18C68.3679 23.1489 69 24.4631 69 25.8333V36.1667C69 37.537 68.3679 38.8511 67.2426 39.8201C66.1174 40.789 64.5913 41.3333 63 41.3333H59.814C59.0826 46.3277 56.2598 50.9206 51.8752 54.25C47.4907 57.5794 41.8458 59.4166 36 59.4167V54.25C40.7739 54.25 45.3523 52.617 48.7279 49.7102C52.1036 46.8034 54 42.8609 54 38.75V23.25C54 19.1392 52.1036 15.1967 48.7279 12.2899C45.3523 9.38304 40.7739 7.75001 36 7.75001C31.2261 7.75001 26.6477 9.38304 23.2721 12.2899C19.8964 15.1967 18 19.1392 18 23.25V41.3333H9C7.4087 41.3333 5.88258 40.789 4.75736 39.8201C3.63214 38.8511 3 37.537 3 36.1667V25.8333C3 24.4631 3.63214 23.1489 4.75736 22.18C5.88258 21.211 7.4087 20.6667 9 20.6667H12.186C12.9181 15.6728 15.7412 11.0806 20.1257 7.75175C24.5102 4.42288 30.1547 2.58612 36 2.58612C41.8453 2.58612 47.4898 4.42288 51.8743 7.75175C56.2588 11.0806 59.0819 15.6728 59.814 20.6667H63ZM23.28 40.7779L26.46 36.3966C29.3192 37.9389 32.6261 38.7547 36 38.75C39.3739 38.7547 42.6808 37.9389 45.54 36.3966L48.72 40.7779C44.9078 42.8346 40.4986 43.9226 36 43.9167C31.5014 43.9226 27.0922 42.8346 23.28 40.7779Z" fill="#3A8BEA"/>
</svg>
