<svg width="50" height="50" viewBox="0 0 50 50" fill="none" xmlns="http://www.w3.org/2000/svg">
<circle cx="25" cy="25" r="25" transform="matrix(1 0 0 -1 0 50)" fill="#3A8BEA"/>
<g clip-path="url(#clip0_848_62)">
<g filter="url(#filter0_d_848_62)">
<path d="M20.2693 39.2455C19.8528 39.6625 19.1774 39.6636 18.7595 39.248V39.248C18.3403 38.8311 18.3392 38.1531 18.757 37.7348L29.5667 26.9134C30.3467 26.1326 30.3467 24.8674 29.5667 24.0866L18.757 13.2652C18.3392 12.847 18.3403 12.1689 18.7595 11.752V11.752C19.1774 11.3364 19.8528 11.3375 20.2694 11.7545L32.5881 24.0866C33.3681 24.8674 33.3681 26.1326 32.5881 26.9134L20.2693 39.2455Z" fill="white"/>
<path d="M28.8592 26.2067L18.0495 37.0281C17.2408 37.8377 17.2429 39.15 18.0543 39.957C18.8632 40.7615 20.1706 40.7593 20.9768 39.9522L33.2956 27.6202C34.4656 26.4489 34.4656 24.5511 33.2956 23.3798L20.9768 11.0478C20.1706 10.2407 18.8632 10.2385 18.0543 11.043C17.2429 11.85 17.2408 13.1623 18.0495 13.972L28.8592 24.7933C29.2492 25.1837 29.2492 25.8163 28.8592 26.2067Z" stroke="white" stroke-width="2"/>
<path d="M28.8592 26.2067L18.0495 37.0281C17.2408 37.8377 17.2429 39.15 18.0543 39.957C18.8632 40.7615 20.1706 40.7593 20.9768 39.9522L33.2956 27.6202C34.4656 26.4489 34.4656 24.5511 33.2956 23.3798L20.9768 11.0478C20.1706 10.2407 18.8632 10.2385 18.0543 11.043C17.2429 11.85 17.2408 13.1623 18.0495 13.972L28.8592 24.7933C29.2492 25.1837 29.2492 25.8163 28.8592 26.2067Z" stroke="white" stroke-opacity="0.2" stroke-width="2"/>
</g>
</g>
<defs>
<filter id="filter0_d_848_62" x="10.1443" y="7.14116" width="31.3288" height="44.7177" filterUnits="userSpaceOnUse" color-interpolation-filters="sRGB">
<feFlood flood-opacity="0" result="BackgroundImageFix"/>
<feColorMatrix in="SourceAlpha" type="matrix" values="0 0 0 0 0 0 0 0 0 0 0 0 0 0 0 0 0 0 127 0" result="hardAlpha"/>
<feOffset dy="4"/>
<feGaussianBlur stdDeviation="3.15"/>
<feComposite in2="hardAlpha" operator="out"/>
<feColorMatrix type="matrix" values="0 0 0 0 0 0 0 0 0 0.7 0 0 0 0 1 0 0 0 0.25 0"/>
<feBlend mode="normal" in2="BackgroundImageFix" result="effect1_dropShadow_848_62"/>
<feBlend mode="normal" in="SourceGraphic" in2="effect1_dropShadow_848_62" result="shape"/>
</filter>
<clipPath id="clip0_848_62">
<rect width="32" height="38" fill="white" transform="matrix(-1 0 0 -1 41 47)"/>
</clipPath>
</defs>
</svg>
