<svg width="51" height="51" viewBox="0 0 51 51" fill="none" xmlns="http://www.w3.org/2000/svg">
<circle cx="25.2705" cy="25.2705" r="25.2705" fill="#2387C0" fill-opacity="0.3"/>
<circle cx="25.2708" cy="25.2699" r="19.8938" fill="#3A8BEA"/>
<path d="M33.3413 21.7096C33.3272 21.5831 33.277 21.4618 33.1954 21.3571C33.1138 21.2523 33.0035 21.1677 32.8748 21.1109L26.0643 18.0987C25.9461 18.0463 25.8156 18.019 25.6834 18.019C25.5511 18.019 25.4207 18.0463 25.3024 18.0987L18.4919 21.1109C18.3636 21.168 18.2536 21.2528 18.1722 21.3574C18.0908 21.4621 18.0406 21.5832 18.0262 21.7096C18.0169 21.7902 17.2081 29.8179 25.3382 33.0162C25.4468 33.0596 25.5646 33.082 25.6838 33.082C25.803 33.082 25.9208 33.0596 26.0294 33.0162C34.1595 29.8179 33.3507 21.791 33.3413 21.7096ZM25.6838 31.4973C19.9213 29.0332 19.6488 23.7745 19.6957 22.2631L25.6838 19.6146L31.6677 22.2616C31.6992 23.7595 31.3884 29.0528 25.6838 31.4973Z" fill="white"/>
<path d="M24.8316 25.9915L22.8795 24.2647L21.6758 25.3295L24.8316 28.1212L29.69 23.8234L28.4863 22.7585L24.8316 25.9915Z" fill="white"/>
</svg>
