<svg width="51" height="51" viewBox="0 0 51 51" fill="none" xmlns="http://www.w3.org/2000/svg">
<circle cx="25.2705" cy="25.2705" r="25.2705" fill="#3A8BEA" fill-opacity="0.3"/>
<circle cx="25.2713" cy="25.2698" r="19.8938" fill="#3A8BEA"/>
<path d="M33.25 18.4179H29.5977V17.5484C29.5977 16.8369 29.3327 16.2375 28.8027 15.75C28.2728 15.2625 27.6211 15.0188 26.8477 15.0188H23.1523C22.3789 15.0188 21.7272 15.2625 21.1973 15.75C20.6673 16.2375 20.4023 16.8369 20.4023 17.5484V18.4179H16.75C15.9766 18.4179 15.3249 18.6551 14.7949 19.1294C14.265 19.6037 14 20.2097 14 20.9475V24.3071C14 24.8604 14.3008 25.1371 14.9023 25.1371V31.8958C14.9023 32.3438 15.0885 32.739 15.4609 33.0816C15.8333 33.4241 16.263 33.5954 16.75 33.5954H33.25C33.737 33.5954 34.1667 33.4241 34.5391 33.0816C34.9115 32.739 35.0977 32.3438 35.0977 31.8958V25.1371C35.6992 25.1371 36 24.8604 36 24.3071V20.9475C36 20.2097 35.735 19.6037 35.2051 19.1294C34.6751 18.6551 34.0234 18.4179 33.25 18.4179ZM22.25 17.5484C22.25 17.3112 22.3359 17.1136 22.5078 16.9555C22.6797 16.7974 22.8945 16.7184 23.1523 16.7184H26.8477C27.1055 16.7184 27.3203 16.7974 27.4922 16.9555C27.6641 17.1136 27.75 17.3112 27.75 17.5484V18.4179H22.25V17.5484ZM16.75 31.8958V25.1371H22.25V27.6667C22.25 28.141 22.429 28.5428 22.7871 28.8722C23.1452 29.2016 23.582 29.3663 24.0977 29.3663H25.9023C26.418 29.3663 26.8548 29.2016 27.2129 28.8722C27.571 28.5428 27.75 28.141 27.75 27.6667V25.1371H33.25V31.8958H16.75ZM24.0977 27.6667V25.1371H25.9023V27.6667H24.0977ZM34.1523 23.4771H15.8477V20.9475C15.8477 20.3678 16.1484 20.078 16.75 20.078H33.25C33.8516 20.078 34.1523 20.3678 34.1523 20.9475V23.4771Z" fill="white"/>
</svg>
