<svg width="51" height="51" viewBox="0 0 51 51" fill="none" xmlns="http://www.w3.org/2000/svg">
<circle cx="25.2705" cy="25.2705" r="25.2705" fill="#C4DDF9"/>
<circle cx="25.2708" cy="25.2699" r="19.8938" fill="#3A8BEA"/>
<path d="M32.2315 18.0189H27.7143C27.5739 18.0188 27.4391 18.0679 27.3394 18.1555L18.3087 26.144C18.111 26.3198 18 26.5577 18 26.8057C18 27.0536 18.111 27.2915 18.3087 27.4673L22.6091 31.2714C22.8078 31.4463 23.0767 31.5445 23.357 31.5445C23.6374 31.5445 23.9063 31.4463 24.105 31.2714L33.132 23.2861C33.2309 23.1979 33.2864 23.0787 33.2863 22.9544V18.9553C33.287 18.8324 33.2602 18.7107 33.2075 18.597C33.1548 18.4833 33.0772 18.38 32.9791 18.293C32.8811 18.206 32.7646 18.1369 32.6362 18.0899C32.5079 18.0429 32.3704 18.0187 32.2315 18.0189V18.0189Z" stroke="white" stroke-width="1.61301" stroke-linecap="round" stroke-linejoin="round"/>
<path d="M30.1762 23.0997C29.9435 23.0997 29.7161 23.0386 29.5227 22.9243C29.3293 22.81 29.1786 22.6475 29.0895 22.4574C29.0005 22.2673 28.9772 22.0581 29.0226 21.8562C29.068 21.6544 29.18 21.469 29.3445 21.3235C29.509 21.178 29.7185 21.0789 29.9467 21.0388C30.1749 20.9986 30.4113 21.0192 30.6263 21.098C30.8412 21.1767 31.0249 21.3101 31.1541 21.4812C31.2833 21.6523 31.3523 21.8534 31.3523 22.0592C31.3523 22.3352 31.2284 22.5998 31.0078 22.7949C30.7873 22.99 30.4881 23.0997 30.1762 23.0997Z" fill="white"/>
</svg>
