<svg width="51" height="51" viewBox="0 0 51 51" fill="none" xmlns="http://www.w3.org/2000/svg">
<circle cx="25.2705" cy="25.2705" r="25.2705" fill="#3A8BEA" fill-opacity="0.3"/>
<circle cx="25.2708" cy="25.2699" r="19.8938" fill="#3A8BEA"/>
<path d="M36.1687 22.7156H30.2543C30.1526 22.7156 30.0695 22.7984 30.0695 22.8997V24.0047C30.0695 24.106 30.1526 24.1888 30.2543 24.1888H36.1687C36.2703 24.1888 36.3535 24.106 36.3535 24.0047V22.8997C36.3535 22.7984 36.2703 22.7156 36.1687 22.7156ZM33.0729 25.8463H30.2543C30.1526 25.8463 30.0695 25.9291 30.0695 26.0304V27.1354C30.0695 27.2367 30.1526 27.3195 30.2543 27.3195H33.0729C33.1745 27.3195 33.2577 27.2367 33.2577 27.1354V26.0304C33.2577 25.9291 33.1745 25.8463 33.0729 25.8463ZM25.3634 20.6553H24.363C24.2198 20.6553 24.1042 20.7704 24.1042 20.9131V26.622C24.1042 26.7049 24.1435 26.7809 24.2105 26.8292L27.6506 29.3292C27.7661 29.4121 27.9278 29.389 28.011 29.2739L28.6047 28.4659V28.4636C28.6879 28.3485 28.6625 28.1874 28.547 28.1045L25.6198 25.9959V20.9131C25.6221 20.7704 25.5043 20.6553 25.3634 20.6553Z" fill="white"/>
<path d="M32.9299 28.7449H31.5946C31.4652 28.7449 31.3427 28.8117 31.2734 28.9222C30.98 29.3849 30.6381 29.8131 30.2454 30.2044C29.5684 30.8789 28.7806 31.4083 27.905 31.7767C26.9971 32.1588 26.0337 32.3522 25.0402 32.3522C24.0445 32.3522 23.0811 32.1588 22.1755 31.7767C21.2999 31.4083 20.512 30.8789 19.8351 30.2044C19.1582 29.5299 18.6268 28.7449 18.2572 27.8725C17.8737 26.9701 17.6796 26.0102 17.6796 25.018C17.6796 24.0258 17.8737 23.0682 18.2572 22.1635C18.6268 21.2911 19.1582 20.5061 19.8351 19.8316C20.512 19.1571 21.2999 18.6277 22.1755 18.2593C23.0811 17.8772 24.0468 17.6838 25.0402 17.6838C26.036 17.6838 26.9994 17.8772 27.905 18.2593C28.7806 18.6277 29.5684 19.1571 30.2454 19.8316C30.6381 20.2229 30.98 20.6511 31.2734 21.1138C31.3427 21.2243 31.4652 21.2911 31.5946 21.2911H32.9299C33.0893 21.2911 33.191 21.1253 33.1194 20.9849C31.6131 17.9992 28.5588 16.0586 25.1488 16.0195C20.1563 15.9573 16.0093 20.0296 16 24.9996C15.9908 29.9788 20.0407 34.0188 25.0379 34.0188C28.4918 34.0188 31.5969 32.0713 33.1194 29.0511C33.191 28.9107 33.087 28.7449 32.9299 28.7449Z" fill="white"/>
</svg>
