<svg width="223" height="83" viewBox="0 0 223 83" fill="none" xmlns="http://www.w3.org/2000/svg">
<path d="M32.538 52.104C32.6033 51.8427 32.636 51.6467 32.636 51.516C32.636 51.3853 32.5707 51.32 32.44 51.32C32.3747 51.32 32.1787 51.4833 31.852 51.81C31.5907 52.1367 31.2313 52.594 30.774 53.182C30.3167 53.77 29.3367 54.8807 27.834 56.514C26.3967 58.1473 24.894 59.6827 23.326 61.12C19.0793 65.1707 14.8327 68.274 10.586 70.43C9.54067 70.9527 8.39733 71.214 7.156 71.214C2.38667 71.214 0.00199973 67.6207 0.00199973 60.434C0.00199973 54.0313 3.04 46.322 9.116 37.306C11.9907 33.1247 15.4207 29.0413 19.406 25.056C23.4567 21.0053 27.736 17.412 32.244 14.276C36.752 11.14 41.652 8.62466 46.944 6.73C52.236 4.77 57.3973 3.79 62.428 3.79C63.2773 3.79 64.4207 4.084 65.858 4.672C68.2753 5.71733 69.484 6.828 69.484 8.00399C69.484 8.65733 69.0593 9.01667 68.21 9.082C67.8833 9.082 67.72 9.21266 67.72 9.474C67.72 9.73533 68.1773 10.258 69.092 11.042C70.072 11.7607 70.562 12.4793 70.562 13.198C70.562 13.8513 70.3333 14.4393 69.876 14.962C66.6093 18.5553 63.996 21.5607 62.036 23.978C60.076 26.33 58.5733 28.094 57.528 29.27C56.548 30.446 55.4047 31.818 54.098 33.386C52.8567 34.8887 51.452 36.816 49.884 39.168C48.316 41.4547 46.8787 43.7413 45.572 46.028C42.5667 51.5813 41.064 56.6773 41.064 61.316C41.064 65.8893 41.4887 70.234 42.338 74.35C43.1873 78.5313 44.0693 81.0793 44.984 81.994C44.984 82.19 44.7553 82.288 44.298 82.288C41.2927 82.288 38.712 81.112 36.556 78.76C32.636 74.3827 30.676 68.6333 30.676 61.512C30.676 58.964 31.2967 55.828 32.538 52.104ZM45.376 30.054L64.192 11.14C64.6493 10.6827 64.878 10.356 64.878 10.16C64.878 9.964 64.7147 9.866 64.388 9.866C59.3573 10.65 54.0327 12.708 48.414 16.04C42.7953 19.372 37.6993 23.2267 33.126 27.604C28.5527 31.9813 24.3387 36.4567 20.484 41.03C16.6293 45.6033 13.624 49.7193 11.468 53.378C9.37733 57.0367 8.332 59.65 8.332 61.218C8.332 61.4793 8.49533 61.61 8.822 61.61C9.214 61.61 9.93267 61.3813 10.978 60.924C12.0233 60.4013 15.6167 57.5267 21.758 52.3C27.9647 47.008 35.8373 39.5927 45.376 30.054ZM94.582 0.261995C97.9793 0.261995 99.678 1.17666 99.678 3.00599C99.678 5.68466 97.0973 9.73533 91.936 15.158C86.84 20.5807 81.7113 25.3173 76.55 29.368L68.906 35.542C68.514 35.9993 68.318 36.3587 68.318 36.62C68.318 36.8813 68.4813 37.012 68.808 37.012C73.9693 33.68 78.608 31.9487 82.724 31.818C83.508 31.818 84.2266 32.0467 84.88 32.504C87.1013 34.3333 88.212 36.4567 88.212 38.874C88.212 41.2913 85.7293 45.3747 80.764 51.124C82.8546 50.6013 85.6966 49.262 89.29 47.106C92.9486 44.8847 96.052 42.794 98.6 40.834L102.422 37.894C103.01 38.3513 103.304 38.9067 103.304 39.56C103.304 40.2133 103.01 40.8013 102.422 41.324C91.642 51.32 83.4753 56.318 77.922 56.318C77.53 56.318 76.942 56.2527 76.158 56.122L76.354 55.828C72.4993 59.6173 68.6446 62.786 64.79 65.334C60.9353 67.8167 57.7666 69.058 55.284 69.058C49.1426 69.058 46.072 66.9673 46.072 62.786C46.072 60.6953 46.758 58.2453 48.13 55.436C49.4366 52.5613 51.0373 49.85 52.932 47.302C54.8266 44.6887 56.7213 42.2387 58.616 39.952C60.576 37.6653 62.2093 35.836 63.516 34.464C64.888 33.092 65.574 32.4387 65.574 32.504C70.2126 27.1467 74.2306 22.214 77.628 17.706C81.0906 13.1327 83.3773 9.89866 84.488 8.00399C85.5986 6.044 86.7093 4.378 87.82 3.00599C88.9306 1.634 89.8453 0.849997 90.564 0.653996C91.348 0.392662 92.6873 0.261995 94.582 0.261995ZM55.186 63.57C57.8646 63.57 61.3273 61.6753 65.574 57.886C69.886 54.0967 73.5446 50.144 76.55 46.028C79.6206 41.912 81.156 39.2333 81.156 37.992C81.156 37.796 81.058 37.698 80.862 37.698C77.4646 37.698 73.61 39.5273 69.298 43.186C64.986 46.8447 61.4253 50.6667 58.616 54.652C55.872 58.6373 54.5 61.3813 54.5 62.884C54.5 63.3413 54.7286 63.57 55.186 63.57ZM89.6368 62.688C91.7274 62.688 94.3081 61.316 97.3788 58.572C100.449 55.828 102.05 53.9333 102.181 52.888C101.397 52.2347 100.547 51.0587 99.6328 49.36C98.7834 47.596 98.3261 46.714 98.2608 46.714C96.2354 48.6087 94.4388 50.7973 92.8708 53.28C90.3881 57.4613 89.1468 60.336 89.1468 61.904C89.1468 62.4267 89.3101 62.688 89.6368 62.688ZM110.805 38.678C110.151 38.678 108.779 39.6907 106.689 41.716C104.663 43.7413 103.651 45.146 103.651 45.93C103.651 46.126 103.847 46.518 104.239 47.106C104.631 47.694 104.925 47.988 105.121 47.988C106.231 47.988 107.473 46.6487 108.845 43.97C110.282 41.2913 111.001 39.756 111.001 39.364C111.001 38.9067 110.935 38.678 110.805 38.678ZM111.001 51.32C112.83 51.32 115.672 50.2093 119.527 47.988C123.447 45.7667 126.877 43.5453 129.817 41.324L134.227 37.894C134.815 38.3513 135.109 38.9067 135.109 39.56C135.109 40.2133 134.815 40.8013 134.227 41.324C123.447 51.32 115.28 56.318 109.727 56.318C109.335 56.318 108.747 56.2527 107.963 56.122C100.58 64.6807 94.2428 68.96 88.9508 68.96C85.4228 68.4373 83.2014 67.196 82.2868 65.236C81.7641 64.256 81.5028 63.0147 81.5028 61.512C81.5028 57.2 83.9854 52.0713 88.9508 46.126C93.9161 40.1153 100.155 35.7053 107.669 32.896C108.322 32.896 108.812 33.0593 109.139 33.386C109.465 33.6473 109.759 33.8107 110.021 33.876C110.282 33.876 110.609 33.7453 111.001 33.484C111.458 33.1573 112.046 32.994 112.765 32.994C113.483 32.9287 114.235 33.3207 115.019 34.17C116.064 35.0193 116.587 36.0647 116.587 37.306C116.587 40.9647 114.725 45.636 111.001 51.32ZM142.079 58.278C151.814 53.0513 162.528 46.0933 174.223 37.404C174.811 37.8613 175.105 38.4167 175.105 39.07C175.105 39.7233 174.778 40.344 174.125 40.932C173.472 41.52 172.524 42.3693 171.283 43.48C170.107 44.5907 167.82 46.5833 164.423 49.458C161.026 52.3327 157.857 54.946 154.917 57.298C147.208 63.5047 141.524 67.1633 137.865 68.274C136.689 68.6007 135.415 68.764 134.043 68.764C131.822 68.764 130.711 67.0327 130.711 63.57C130.711 62.8513 131.005 61.7733 131.593 60.336C132.246 58.8987 132.606 58.082 132.671 57.886C132.802 57.6247 132.9 57.4287 132.965 57.298C133.03 57.1673 133.096 57.0693 133.161 57.004C133.226 56.8733 133.259 56.7427 133.259 56.612C133.259 56.4813 133.063 56.416 132.671 56.416C132.344 56.416 131.266 57.298 129.437 59.062C127.608 60.7607 126.072 62.1327 124.831 63.178C123.655 64.2233 122.283 65.2033 120.715 66.118C119.212 67.0327 117.971 67.49 116.991 67.49C114.378 67.49 113.071 66.2813 113.071 63.864C113.071 62.4267 113.561 60.6627 114.541 58.572C116.828 53.7373 120.258 48.9027 124.831 44.068C129.404 39.2333 132.671 36.7833 134.631 36.718C135.35 36.718 136.003 36.9793 136.591 37.502C137.179 38.0247 137.473 38.6127 137.473 39.266C137.473 39.9193 136.82 40.8993 135.513 42.206C134.206 43.5127 132.54 45.2113 130.515 47.302C128.555 49.3273 127.15 51.026 126.301 52.398C125.517 53.77 125.125 54.6847 125.125 55.142C125.125 55.5993 125.386 55.828 125.909 55.828C126.432 55.828 127.379 55.4033 128.751 54.554C132.475 52.006 136.722 48.87 141.491 45.146C146.326 41.422 149.429 38.7107 150.801 37.012C151.128 35.836 152.108 35.248 153.741 35.248C156.877 35.248 158.445 35.8033 158.445 36.914C158.445 37.3713 156.91 39.07 153.839 42.01C144.627 50.83 140.021 56.2853 140.021 58.376C140.021 58.7027 140.152 58.866 140.413 58.866C140.74 58.866 141.295 58.67 142.079 58.278ZM200.81 21.724L205.808 21.626C212.276 21.626 216.98 22.5407 219.92 24.37C221.357 24.8273 222.076 25.4153 222.076 26.134C222.076 26.6567 221.423 27.016 220.116 27.212C218.875 27.408 214.465 27.9307 206.886 28.78C199.373 29.564 194.211 30.0213 191.402 30.152C190.161 30.2173 187.286 32.3733 182.778 36.62C178.335 40.8667 174.089 45.538 170.038 50.634C165.987 55.73 163.962 59.2907 163.962 61.316C163.962 61.6427 164.125 61.9367 164.452 62.198C164.779 62.394 165.171 62.492 165.628 62.492C166.151 62.492 166.935 62.296 167.98 61.904C180.393 54.5867 192.447 46.5833 204.142 37.894C204.73 38.3513 205.024 38.9067 205.024 39.56C205.024 40.2133 204.697 40.8667 204.044 41.52C203.391 42.108 202.411 42.99 201.104 44.166C199.863 45.342 197.511 47.4653 194.048 50.536C190.585 53.6067 187.319 56.3507 184.248 58.768C176.016 65.432 170.267 69.2867 167 70.332C165.824 70.6587 164.419 70.822 162.786 70.822C161.218 70.822 159.748 70.0053 158.376 68.372C157.069 66.7387 156.416 64.5173 156.416 61.708C156.416 58.8987 158.213 54.848 161.806 49.556C165.465 44.264 170.43 38.8413 176.702 33.288C177.29 32.8307 177.584 32.406 177.584 32.014C177.584 31.622 176.898 31.426 175.526 31.426L169.352 31.622C160.663 31.622 156.187 30.642 155.926 28.682C153.901 28.29 152.888 27.702 152.888 26.918C152.888 26.6567 153.019 26.526 153.28 26.526C153.541 26.4607 153.77 26.428 153.966 26.428C154.162 26.3627 154.489 26.2973 154.946 26.232C155.403 26.1667 158.997 25.644 165.726 24.664C172.521 23.684 180.23 22.8673 188.854 22.214L195.616 13.198C196.008 12.414 197.38 12.022 199.732 12.022C202.084 12.022 203.26 12.512 203.26 13.492C203.26 13.8187 202.999 14.4067 202.476 15.256L200.026 18.686C199.699 19.7313 199.503 20.5153 199.438 21.038C199.438 21.4953 199.895 21.724 200.81 21.724Z" fill="#CFF3FF"/>
</svg>
