<svg width="30" height="21" viewBox="0 0 30 21" fill="none" xmlns="http://www.w3.org/2000/svg">
<path d="M1.8448 15.7497C1.84639 16.3008 2.01155 16.8453 2.32946 17.3478C2.64737 17.8503 3.11087 18.2993 3.6896 18.6655V20.3435C3.6896 20.5175 3.78679 20.6844 3.95977 20.8075C4.13275 20.9306 4.36737 20.9997 4.61201 20.9997H6.45681C6.70144 20.9997 6.93606 20.9306 7.10904 20.8075C7.28203 20.6844 7.37921 20.5175 7.37921 20.3435V19.6872H22.1376V20.3435C22.1376 20.5175 22.2348 20.6844 22.4078 20.8075C22.5808 20.9306 22.8154 20.9997 23.06 20.9997H24.9048C25.1495 20.9997 25.3841 20.9306 25.5571 20.8075C25.7301 20.6844 25.8272 20.5175 25.8272 20.3435V18.6655C26.406 18.2993 26.8695 17.8503 27.1874 17.3478C27.5053 16.8453 27.6704 16.3008 27.672 15.7497V13.781H1.8448V15.7497ZM28.5944 10.4997H4.61201V2.84005C4.61253 2.66782 4.68474 2.49955 4.81952 2.35647C4.9543 2.21339 5.14563 2.10192 5.36935 2.03611C5.59307 1.9703 5.83918 1.95311 6.07662 1.98669C6.31407 2.02027 6.53222 2.10313 6.70355 2.22482L7.81447 3.01478C7.05752 4.24033 7.37575 5.43921 8.31141 6.28496L8.30161 6.29193C8.12929 6.41494 8.03252 6.58153 8.03252 6.7552C8.03252 6.92887 8.12929 7.09546 8.30161 7.21847L8.95363 7.68236C9.03929 7.74331 9.14098 7.79166 9.25291 7.82465C9.36483 7.85764 9.48479 7.87462 9.60594 7.87462C9.72709 7.87462 9.84706 7.85764 9.95898 7.82465C10.0709 7.79166 10.1726 7.74331 10.2583 7.68236L16.3328 3.36054C16.4185 3.2996 16.4865 3.22725 16.5328 3.14762C16.5792 3.06799 16.6031 2.98264 16.6031 2.89645C16.6031 2.81026 16.5792 2.72491 16.5328 2.64528C16.4865 2.56565 16.4185 2.4933 16.3328 2.43236L15.6808 1.96847C15.5079 1.84549 15.2733 1.77641 15.0288 1.77641C14.7843 1.77641 14.5497 1.84549 14.3768 1.96847L14.367 1.97544C13.1782 1.30976 11.4943 1.08335 9.77053 1.62189L8.66019 0.831518C8.10186 0.434243 7.39048 0.16369 6.61601 0.0540754C5.84155 -0.0555389 5.03878 0.000709568 4.30925 0.215707C3.57972 0.430704 2.95619 0.794793 2.51752 1.26193C2.07884 1.72906 1.84474 2.27825 1.8448 2.84005V10.4997H0.922401C0.677765 10.4997 0.443149 10.5689 0.270165 10.6919C0.0971813 10.815 0 10.9819 0 11.156L0 11.8122C0 11.9863 0.0971813 12.1532 0.270165 12.2763C0.443149 12.3993 0.677765 12.4685 0.922401 12.4685H28.5944C28.8391 12.4685 29.0737 12.3993 29.2467 12.2763C29.4197 12.1532 29.5168 11.9863 29.5168 11.8122V11.156C29.5168 10.9819 29.4197 10.815 29.2467 10.6919C29.0737 10.5689 28.8391 10.4997 28.5944 10.4997Z" fill="black"/>
</svg>
