<svg width="37" height="25" viewBox="0 0 37 25" fill="none" xmlns="http://www.w3.org/2000/svg">
<path d="M15.183 8.74998C15.3938 7.58748 15.7452 6.55623 16.1914 5.72873C16.5657 5.03623 16.9909 4.51748 17.4178 4.18373C17.8447 3.84998 18.2032 3.74998 18.4772 3.74998C18.7513 3.74998 19.1097 3.84998 19.5367 4.18373C19.9636 4.51748 20.3888 5.03623 20.763 5.72873C21.2111 6.55623 21.5625 7.58748 21.7715 8.74998H15.183ZM14.5504 5.27998C14.7876 4.84373 15.0547 4.43998 15.3551 4.08373C13.7868 4.43093 12.3538 5.03343 11.1698 5.84342C9.98588 6.65342 9.08361 7.6486 8.53463 8.74998H13.4119C13.6333 7.43748 14.0269 6.25123 14.5522 5.27998H14.5504ZM22.404 5.27998C22.1845 4.86556 21.9153 4.46533 21.5994 4.08373C23.1677 4.43093 24.6007 5.03343 25.7847 5.84342C26.9686 6.65342 27.8709 7.6486 28.4199 8.74998H23.5425C23.3212 7.43748 22.9276 6.25123 22.4023 5.27998H22.404ZM23.6954 9.99998H28.8714C29.0668 10.8275 29.0668 11.6724 28.8714 12.5H23.6954C23.763 11.6673 23.763 10.8326 23.6954 9.99998ZM23.5408 13.75H28.4181C27.8691 14.8514 26.9668 15.8465 25.7829 16.6565C24.599 17.4665 23.166 18.069 21.5976 18.4162C21.8963 18.06 22.1651 17.6562 22.4005 17.22C22.9276 16.2487 23.3194 15.0625 23.5425 13.75H23.5408ZM19.5349 18.3162C19.108 18.65 18.7496 18.75 18.4755 18.75C18.2014 18.75 17.843 18.65 17.416 18.3162C16.9891 17.9825 16.5639 17.4637 16.1897 16.7712C15.7417 15.9437 15.3903 14.9137 15.1812 13.75H21.7698C21.5589 14.9125 21.2076 15.9437 20.7613 16.7712C20.3871 17.4637 19.9619 17.9825 19.5349 18.3162ZM8.53463 13.75C9.08361 14.8514 9.98588 15.8465 11.1698 16.6565C12.3538 17.4665 13.7868 18.069 15.3551 18.4162C15.0398 18.0346 14.7712 17.6344 14.5522 17.22C14.0251 16.2487 13.6333 15.0625 13.4102 13.75H8.53639H8.53463ZM13.2573 12.5H8.08134C7.88607 11.6724 7.88607 10.8275 8.08134 9.99998H13.2573C13.1899 10.8326 13.1899 11.6673 13.2573 12.5ZM15.016 9.99998C14.9444 10.8325 14.9444 11.6674 15.016 12.5H21.9384C22.0101 11.6674 22.0101 10.8325 21.9384 9.99998H15.016ZM7.05703 16.25H8.38354C8.81926 16.695 9.31296 17.11 9.85411 17.49C9.80077 17.4968 9.74666 17.5002 9.69247 17.5H7.74225L6.42453 21.25H30.53L29.2122 17.5H27.262C27.2078 17.5002 27.1537 17.4968 27.1004 17.49C27.6432 17.1097 28.1355 16.6946 28.5709 16.25H29.8974C30.0934 16.25 30.2837 16.2967 30.4381 16.3825C30.5925 16.4684 30.7022 16.5885 30.7496 16.7237L32.5065 21.7237C32.5388 21.8158 32.5412 21.912 32.5135 22.0048C32.4857 22.0977 32.4286 22.1849 32.3465 22.2597C32.2644 22.3345 32.1594 22.395 32.0394 22.4367C31.9195 22.4783 31.7878 22.5 31.6544 22.5H5.30008C5.16664 22.5 5.03496 22.4783 4.91504 22.4367C4.79512 22.395 4.69011 22.3345 4.60798 22.2597C4.52584 22.1849 4.46874 22.0977 4.44102 22.0048C4.41329 21.912 4.41566 21.8158 4.44796 21.7237L6.20491 16.7237C6.25233 16.5885 6.36196 16.4684 6.51636 16.3825C6.67077 16.2967 6.86108 16.25 7.05703 16.25Z" fill="black"/>
</svg>
