<svg width="30" height="31" viewBox="0 0 30 31" fill="none" xmlns="http://www.w3.org/2000/svg">
<path d="M29.9034 8.86939C29.8851 7.60829 29.6518 6.35718 29.2054 5.1777C28.424 3.16359 26.8331 1.57097 24.819 0.791315C23.6545 0.353177 22.4234 0.118281 21.1773 0.0916261C19.5746 0.0199912 19.0665 0 14.9983 0C10.9301 0 10.4087 1.11709e-07 8.81775 0.0916261C7.5733 0.118281 6.34218 0.353177 5.1777 0.791315C3.16359 1.57097 1.57097 3.16359 0.791315 5.1777C0.353176 6.34218 0.116615 7.5733 0.0932919 8.81775C0.021657 10.422 0 10.9301 0 14.9983C0 19.0665 -1.24121e-08 19.5863 0.0932919 21.1789C0.118281 22.425 0.353176 23.6545 0.791315 24.8223C1.57263 26.8347 3.16359 28.4274 5.17936 29.207C6.33885 29.6602 7.56997 29.9167 8.81942 29.9567C10.4237 30.0283 10.9318 30.05 15 30.05C19.0682 30.05 19.5896 30.05 21.1806 29.9567C22.425 29.9317 23.6562 29.6968 24.8223 29.2587C26.8364 28.4773 28.4274 26.8847 29.2087 24.8723C29.6468 23.7061 29.8817 22.4767 29.9067 21.2289C29.9783 19.6263 30 19.1182 30 15.0483C29.9967 10.9801 29.9967 10.4637 29.9034 8.86939V8.86939ZM14.9883 22.6916C10.7336 22.6916 7.28676 19.2448 7.28676 14.99C7.28676 10.7352 10.7336 7.28843 14.9883 7.28843C19.2398 7.28843 22.6899 10.7352 22.6899 14.99C22.6899 19.2448 19.2398 22.6916 14.9883 22.6916ZM22.9964 8.79942C22.0019 8.79942 21.2006 7.99645 21.2006 7.00355C21.2006 6.01066 22.0019 5.20769 22.9964 5.20769C23.9877 5.20769 24.7907 6.01066 24.7907 7.00355C24.7907 7.99645 23.9877 8.79942 22.9964 8.79942Z" fill="#312F2F"/>
<path d="M14.9883 19.9929C17.7513 19.9929 19.9911 17.753 19.9911 14.9901C19.9911 12.2271 17.7513 9.9873 14.9883 9.9873C12.2254 9.9873 9.98557 12.2271 9.98557 14.9901C9.98557 17.753 12.2254 19.9929 14.9883 19.9929Z" fill="#312F2F"/>
</svg>
