<svg width="36" height="25" viewBox="0 0 36 25" fill="none" xmlns="http://www.w3.org/2000/svg">
<path d="M27.8184 7.29167H16.1054V14.5833H4.39238V5.20833H1.46413V20.8333H4.39238V17.7083H30.7467V20.8333H33.675V11.4583C33.675 10.3533 33.0579 9.29346 31.9596 8.51205C30.8613 7.73065 29.3717 7.29167 27.8184 7.29167ZM10.2489 13.5417C11.4138 13.5417 12.5311 13.2124 13.3548 12.6264C14.1785 12.0403 14.6413 11.2455 14.6413 10.4167C14.6413 9.58786 14.1785 8.79301 13.3548 8.20696C12.5311 7.62091 11.4138 7.29167 10.2489 7.29167C9.08397 7.29167 7.96674 7.62091 7.14301 8.20696C6.31928 8.79301 5.85651 9.58786 5.85651 10.4167C5.85651 11.2455 6.31928 12.0403 7.14301 12.6264C7.96674 13.2124 9.08397 13.5417 10.2489 13.5417Z" fill="black"/>
</svg>
