<svg width="36" height="36" viewBox="0 0 36 36" fill="none" xmlns="http://www.w3.org/2000/svg">
<circle cx="18" cy="18" r="18" fill="#3A8BEA"/>
<g clip-path="url(#clip0_2_646)">
<path d="M16.05 21.3669V24.1497C16.05 24.3441 16.1748 24.5163 16.3596 24.5775C16.4058 24.5925 16.4532 24.5997 16.5 24.5997C16.6404 24.5997 16.776 24.5337 16.8624 24.4161L18.4902 22.2009L16.05 21.3669Z" fill="white"/>
<path d="M25.011 10.883C24.873 10.7852 24.6918 10.772 24.5418 10.8506L11.0418 17.9006C10.8822 17.984 10.788 18.1544 10.8012 18.3338C10.815 18.5138 10.9344 18.6674 11.1042 18.7256L14.8572 20.0084L22.8498 13.1744L16.665 20.6258L22.9548 22.7756C23.0016 22.7912 23.0508 22.7996 23.1 22.7996C23.1816 22.7996 23.2626 22.7774 23.334 22.7342C23.448 22.6646 23.5254 22.5476 23.5452 22.4162L25.1952 11.3162C25.2198 11.1482 25.149 10.9814 25.011 10.883V10.883Z" fill="white"/>
</g>
<defs>
<clipPath id="clip0_2_646">
<rect width="14.4" height="14.4" fill="white" transform="translate(10.8 10.7998)"/>
</clipPath>
</defs>
</svg>
