<svg width="90" height="90" viewBox="0 0 90 90" fill="none" xmlns="http://www.w3.org/2000/svg">
<rect x="2" y="2" width="86" height="86" rx="18" stroke="#3A8BEA" stroke-width="4"/>
<path d="M33.6625 35.4375C33.6625 38.2818 35.9682 40.5875 38.8125 40.5875V43.7875C34.2009 43.7875 30.4625 40.0491 30.4625 35.4375H33.6625ZM38.8125 40.5875C41.6568 40.5875 43.9625 38.2818 43.9625 35.4375H47.1625C47.1625 40.0491 43.4241 43.7875 38.8125 43.7875V40.5875ZM43.9625 35.4375C43.9625 32.5932 41.6568 30.2875 38.8125 30.2875V27.0875C43.4241 27.0875 47.1625 30.8259 47.1625 35.4375H43.9625ZM38.8125 30.2875C35.9682 30.2875 33.6625 32.5932 33.6625 35.4375H30.4625C30.4625 30.8259 34.2009 27.0875 38.8125 27.0875V30.2875ZM45.5625 50.5375H32.0625V47.3375H45.5625V50.5375ZM32.0625 60.8375H45.5625V64.0375H32.0625V60.8375ZM45.5625 60.8375C48.4068 60.8375 50.7125 58.5318 50.7125 55.6875H53.9125C53.9125 60.2991 50.1741 64.0375 45.5625 64.0375V60.8375ZM26.9125 55.6875C26.9125 58.5318 29.2182 60.8375 32.0625 60.8375V64.0375C27.4509 64.0375 23.7125 60.2991 23.7125 55.6875H26.9125ZM32.0625 50.5375C29.2182 50.5375 26.9125 52.8432 26.9125 55.6875H23.7125C23.7125 51.0759 27.4509 47.3375 32.0625 47.3375V50.5375ZM45.5625 47.3375C50.1741 47.3375 53.9125 51.0759 53.9125 55.6875H50.7125C50.7125 52.8432 48.4068 50.5375 45.5625 50.5375V47.3375Z" fill="#3A8BEA"/>
<path d="M48.3702 41.3745C48.7251 40.8044 49.391 40.5 50.0625 40.5C52.8584 40.5 55.125 38.2334 55.125 35.4375C55.125 32.6416 52.8584 30.375 50.0625 30.375C49.391 30.375 48.7251 30.0706 48.3702 29.5005C48.3545 29.4753 48.3387 29.4502 48.3228 29.4251C47.732 28.4924 48.0313 27.1719 49.1287 27.0511C49.4354 27.0173 49.7469 27 50.0625 27C54.7224 27 58.5 30.7776 58.5 35.4375C58.5 40.0974 54.7224 43.875 50.0625 43.875C49.7469 43.875 49.4354 43.8577 49.1287 43.8239C48.0313 43.7031 47.732 42.3826 48.3228 41.4499C48.3387 41.4248 48.3545 41.3997 48.3702 41.3745Z" fill="#3A8BEA"/>
<path d="M55.2189 59.213C55.4743 58.7868 55.9251 58.5 56.4219 58.5H56.8125C59.6084 58.5 61.875 56.2334 61.875 53.4375C61.875 50.6416 59.6084 48.375 56.8125 48.375H56.4219C55.9251 48.375 55.4743 48.0882 55.2189 47.662C54.5954 46.6219 55.272 45 56.4847 45H56.8125C61.4724 45 65.25 48.7776 65.25 53.4375C65.25 58.0974 61.4724 61.875 56.8125 61.875H56.4847C55.272 61.875 54.5954 60.2531 55.2189 59.213Z" fill="#3A8BEA"/>
</svg>
