<svg width="40" height="28" viewBox="0 0 40 28" fill="none" xmlns="http://www.w3.org/2000/svg">
<path d="M39.1611 4.86934C38.9408 4.07087 38.501 3.34084 37.886 2.75243C37.2707 2.16403 36.5018 1.73794 35.6561 1.51687C32.5267 0.693449 19.9879 0.693449 19.9879 0.693449C14.7596 0.634407 9.53267 0.896355 4.34064 1.47766C3.49467 1.71488 2.72699 2.15078 2.11007 2.74423C1.49317 3.33767 1.04737 4.06905 0.814779 4.86934C0.253847 7.89235 -0.0184552 10.9565 0.00111917 14.0249C-0.0197975 17.0935 0.252516 20.1577 0.814779 23.1806C1.04259 23.9787 1.48742 24.7074 2.10559 25.2953C2.72376 25.8831 3.49399 26.3095 4.34064 26.533C7.51183 27.3564 19.9879 27.3564 19.9879 27.3564C25.2232 27.4156 30.4571 27.1536 35.6561 26.5722C36.5018 26.3512 37.2707 25.9251 37.886 25.3367C38.501 24.7483 38.9408 24.0182 39.1611 23.2198C39.7364 20.1982 40.0157 17.1336 39.9957 14.0642C40.0388 10.981 39.7592 7.90118 39.1611 4.86934ZM16.0031 19.7301V8.31986L26.4347 14.0249L16.0031 19.7301Z" fill="#312F2F"/>
</svg>
