<svg width="17" height="16" viewBox="0 0 17 16" fill="none" xmlns="http://www.w3.org/2000/svg">
<path d="M15.9535 12.5475C15.9535 12.8061 15.8936 13.0719 15.7663 13.3305C15.639 13.5892 15.4742 13.8334 15.2571 14.0633C14.8902 14.4513 14.4858 14.7314 14.0291 14.911C13.5798 15.0906 13.0931 15.184 12.5689 15.184C11.8051 15.184 10.9889 15.0116 10.1278 14.6596C9.26671 14.3076 8.40559 13.8334 7.55197 13.2372C6.69085 12.6337 5.87466 11.9656 5.09591 11.2256C4.32465 10.4785 3.62827 9.69543 3.00677 8.87645C2.39276 8.05747 1.89856 7.2385 1.53913 6.4267C1.17971 5.60772 1 4.82466 1 4.07753C1 3.58901 1.08986 3.12205 1.26957 2.69101C1.44928 2.25278 1.73382 1.85048 2.13068 1.49128C2.60991 1.03868 3.13407 0.815979 3.68818 0.815979C3.89784 0.815979 4.1075 0.859083 4.2947 0.945291C4.48939 1.0315 4.66161 1.16081 4.7964 1.3476L6.5336 3.69677C6.66839 3.87637 6.76573 4.04161 6.83312 4.19965C6.90051 4.35052 6.93795 4.50138 6.93795 4.63788C6.93795 4.8103 6.88554 4.98271 6.78071 5.14794C6.68336 5.31318 6.54109 5.48559 6.36138 5.65801L5.79229 6.22555C5.70993 6.30457 5.67249 6.39796 5.67249 6.51291C5.67249 6.57038 5.67998 6.62067 5.69495 6.67814C5.71742 6.73561 5.73988 6.77872 5.75486 6.82182C5.88964 7.05889 6.12177 7.36781 6.45124 7.74138C6.78819 8.11495 7.14762 8.4957 7.53699 8.87645C7.94134 9.25721 8.33071 9.60922 8.72758 9.9325C9.11695 10.2486 9.43893 10.4641 9.69352 10.5934C9.73096 10.6078 9.77589 10.6294 9.82831 10.6509C9.88821 10.6725 9.94811 10.6796 10.0155 10.6796C10.1428 10.6796 10.2401 10.6365 10.3225 10.5575L10.8916 10.0187C11.0788 9.83911 11.2585 9.70262 11.4307 9.61641C11.603 9.51583 11.7752 9.46554 11.9624 9.46554C12.1046 9.46554 12.2544 9.49428 12.4191 9.55893C12.5839 9.62359 12.7561 9.71698 12.9433 9.83911L15.4218 11.5274C15.6165 11.6567 15.7513 11.8075 15.8337 11.9871C15.9085 12.1667 15.9535 12.3463 15.9535 12.5475Z" stroke="white" stroke-opacity="0.8" stroke-miterlimit="10"/>
<path d="M13.3598 5.84503C13.3598 5.41399 13.0079 4.75306 12.4837 4.21426C12.0045 3.71856 11.368 3.33063 10.739 3.33063" stroke="white" stroke-opacity="0.8" stroke-linecap="round" stroke-linejoin="round"/>
<path d="M15.9806 5.84479C15.9806 3.06458 13.6369 0.815979 10.739 0.815979" stroke="white" stroke-opacity="0.8" stroke-linecap="round" stroke-linejoin="round"/>
</svg>
