<svg width="17" height="20" viewBox="0 0 17 20" fill="none" xmlns="http://www.w3.org/2000/svg">
<path d="M11.0321 16.7044L10.656 16.375L10.656 16.375L11.0321 16.7044ZM5.85676 16.7044L5.48064 17.0339L5.48064 17.0339L5.85676 16.7044ZM8.44444 18.6248L8.44444 18.1248L8.44444 18.6248ZM15.3889 8.2968C15.3889 9.33769 14.7841 10.7209 13.8438 12.2091C12.918 13.6745 11.7227 15.1572 10.656 16.375L11.4082 17.0339C12.4909 15.7978 13.724 14.271 14.6892 12.7433C15.64 11.2383 16.3889 9.64464 16.3889 8.2968H15.3889ZM6.23288 16.375C5.16621 15.1572 3.97089 13.6745 3.04508 12.2091C2.10483 10.7209 1.5 9.33769 1.5 8.2968H0.5C0.5 9.64464 1.24888 11.2383 2.19967 12.7433C3.1649 14.271 4.39796 15.7978 5.48064 17.0339L6.23288 16.375ZM1.5 8.2968C1.5 4.62933 4.5914 1.62476 8.44444 1.62476V0.624756C4.07458 0.624756 0.5 4.04224 0.5 8.2968H1.5ZM8.44444 1.62476C12.2975 1.62476 15.3889 4.62933 15.3889 8.2968H16.3889C16.3889 4.04224 12.8143 0.624756 8.44444 0.624756V1.62476ZM10.656 16.375C10.0839 17.0281 9.69498 17.4696 9.34192 17.7568C9.01211 18.025 8.75339 18.1248 8.44444 18.1248L8.44444 19.1248C9.04115 19.1248 9.51559 18.9045 9.97287 18.5326C10.4069 18.1796 10.859 17.661 11.4082 17.0339L10.656 16.375ZM5.48064 17.0339C6.02994 17.661 6.48198 18.1796 6.91602 18.5326C7.3733 18.9045 7.84774 19.1248 8.44444 19.1248L8.44444 18.1248C8.1355 18.1248 7.87678 18.025 7.54697 17.7568C7.19391 17.4696 6.80494 17.0281 6.23288 16.375L5.48064 17.0339ZM5.15278 8.6228C5.15278 10.3299 6.67995 11.6222 8.44444 11.6222V10.6222C7.12535 10.6222 6.15278 9.67644 6.15278 8.6228H5.15278ZM8.44444 11.6222C10.2089 11.6222 11.7361 10.3299 11.7361 8.6228H10.7361C10.7361 9.67644 9.76354 10.6222 8.44444 10.6222V11.6222ZM11.7361 8.6228C11.7361 6.91573 10.2089 5.62345 8.44444 5.62345V6.62345C9.76354 6.62345 10.7361 7.56917 10.7361 8.6228H11.7361ZM8.44444 5.62345C6.67995 5.62345 5.15278 6.91573 5.15278 8.6228H6.15278C6.15278 7.56917 7.12535 6.62345 8.44444 6.62345V5.62345Z" fill="#E0E1E1"/>
</svg>
