<svg width="63" height="62" viewBox="0 0 63 62" fill="none" xmlns="http://www.w3.org/2000/svg">
<g filter="url(#filter0_d_2_1219)">
<ellipse cx="31.3142" cy="25.4295" rx="22.6987" ry="22.4295" fill="white"/>
</g>
<path d="M26.9133 22.2251C27.6409 21.4456 28.742 21.0504 30.1854 21.0504H30.7041V22.4952L30.2871 22.5777C29.5765 22.7181 29.0823 22.9943 28.8178 23.3997C28.6797 23.6181 28.6015 23.8682 28.5906 24.1254H30.1854C30.323 24.1254 30.4549 24.1794 30.5522 24.2755C30.6495 24.3716 30.7041 24.502 30.7041 24.6379V28.2254C30.7041 28.7907 30.2389 29.2504 29.6668 29.2504H26.5549C26.4173 29.2504 26.2854 29.1965 26.1881 29.1003C26.0909 29.0042 26.0362 28.8739 26.0362 28.7379V26.1754L26.0378 24.6794C26.0331 24.6226 25.9346 23.2747 26.9133 22.2251ZM35.372 29.2504H32.2601C32.1225 29.2504 31.9906 29.1965 31.8933 29.1003C31.796 29.0042 31.7414 28.8739 31.7414 28.7379V26.1754L31.743 24.6794C31.7383 24.6226 31.6397 23.2747 32.6184 22.2251C33.3461 21.4456 34.4472 21.0504 35.8906 21.0504H36.4093V22.4952L35.9923 22.5777C35.2817 22.7181 34.7875 22.9943 34.5229 23.3997C34.3849 23.6181 34.3066 23.8682 34.2958 24.1254H35.8906C36.0282 24.1254 36.1601 24.1794 36.2574 24.2755C36.3546 24.3716 36.4093 24.502 36.4093 24.6379V28.2254C36.4093 28.7907 35.944 29.2504 35.372 29.2504Z" fill="#3A8BEA"/>
<defs>
<filter id="filter0_d_2_1219" x="0.550415" y="0.311646" width="61.5276" height="60.9891" filterUnits="userSpaceOnUse" color-interpolation-filters="sRGB">
<feFlood flood-opacity="0" result="BackgroundImageFix"/>
<feColorMatrix in="SourceAlpha" type="matrix" values="0 0 0 0 0 0 0 0 0 0 0 0 0 0 0 0 0 0 127 0" result="hardAlpha"/>
<feOffset dy="5.37671"/>
<feGaussianBlur stdDeviation="4.03253"/>
<feColorMatrix type="matrix" values="0 0 0 0 0.137255 0 0 0 0 0.529412 0 0 0 0 0.752941 0 0 0 0.15 0"/>
<feBlend mode="normal" in2="BackgroundImageFix" result="effect1_dropShadow_2_1219"/>
<feBlend mode="normal" in="SourceGraphic" in2="effect1_dropShadow_2_1219" result="shape"/>
</filter>
</defs>
</svg>
